<svg xmlns="http://www.w3.org/2000/svg" width="48" height="48" id="notification"><path fill="#0277BD" d="M27.967 7.517a.499.499 0 0 1-.496-.564A3.504 3.504 0 0 0 24 3a3.504 3.504 0 0 0-3.474 3.935.5.5 0 1 1-.992.122A4.505 4.505 0 0 1 24 2a4.505 4.505 0 0 1 4.462 5.082.5.5 0 0 1-.495.435z"></path><circle cx="24" cy="40.5" r="5" fill="#FFE57F"></circle><path fill="#0277BD" d="M24 46a5.52 5.52 0 0 1-4.991-3.187.5.5 0 0 1 .907-.421A4.516 4.516 0 0 0 24 45a4.475 4.475 0 0 0 4.049-2.533.5.5 0 0 1 .899.437A5.466 5.466 0 0 1 24 46z"></path><path fill="#FFE57F" d="m39.188 36.257-2.178-8.686c-.303-1.209-.314-2.462-.142-3.696A13.48 13.48 0 0 0 37 22c0-7.456-5.82-13.5-13-13.5S11 14.544 11 22c0 .637.046 1.262.131 1.875.172 1.234.161 2.487-.142 3.696l-2.178 8.686a1 1 0 0 0 .971 1.243h28.437a1 1 0 0 0 .969-1.243z"></path><path fill="#0277BD" d="M9.251 35.008a.498.498 0 0 1-.485-.621l1.739-6.937c.265-1.056.309-2.235.132-3.505A14.042 14.042 0 0 1 10.5 22c0-7.72 6.056-14 13.5-14s13.5 6.28 13.5 14c0 .643-.046 1.296-.136 1.944-.177 1.27-.133 2.449.132 3.505l1.729 6.897a.499.499 0 1 1-.969.243l-1.729-6.897c-.296-1.181-.348-2.489-.152-3.887A13.25 13.25 0 0 0 36.5 22c0-7.168-5.607-13-12.5-13s-12.5 5.832-12.5 13c0 .596.042 1.204.126 1.805.195 1.398.144 2.706-.152 3.887l-1.739 6.937a.5.5 0 0 1-.484.379z"></path><path fill="#FFF8E1" d="M10.86 32.7a.499.499 0 0 1-.485-.621l1.1-4.385c.296-1.18.348-2.488.153-3.889A12.76 12.76 0 0 1 11.5 22c0-7.168 5.607-13 12.5-13a.5.5 0 0 1 0 1c-6.341 0-11.5 5.383-11.5 12 0 .552.04 1.112.117 1.666.213 1.529.155 2.966-.173 4.271l-1.1 4.384a.5.5 0 0 1-.484.379z"></path><path fill="#FFE57F" d="M39.5 40.5h-31a2 2 0 0 1 0-4h31a2 2 0 0 1 0 4z"></path><path fill="#0277BD" d="M39.5 41h-31C7.122 41 6 39.878 6 38.5S7.122 36 8.5 36h31c1.378 0 2.5 1.122 2.5 2.5S40.878 41 39.5 41zm-31-4c-.827 0-1.5.673-1.5 1.5S7.673 40 8.5 40h31c.827 0 1.5-.673 1.5-1.5s-.673-1.5-1.5-1.5h-31z"></path><path fill="#FFF8E1" d="M8 38.5H7c0-.827.673-1.5 1.5-1.5h31v1h-31a.5.5 0 0 0-.5.5z"></path></svg>