<svg xmlns="http://www.w3.org/2000/svg" viewBox="0 0 64 64" id="video-call"><path fill="#ff9909" d="M47 11.5v11.78A20 20 0 0 0 14.14 45.5H6a4 4 0 0 1-4-4v-30a4 4 0 0 1 4-4h37a4 4 0 0 1 4 4Z"></path><path fill="#fbcb00" d="M62 14.14v25A4 4 0 0 1 56.85 43l-5.44-1.63a20 20 0 0 0-2.47-15.45A18.89 18.89 0 0 0 47 23.28v-9.53l9.68-3.39A4 4 0 0 1 62 14.14Z"></path><path fill="#e6e7e8" d="M48.94 25.88a18.89 18.89 0 0 0-1.94-2.6 20 20 0 1 0 1.94 2.6Zm-14.55 17L24 48.85v-24l10.39 6 .75.44 9.62 5.56Z"></path><path fill="#ee161f" d="m44.77 36.86-10.38 5.99-10.39 6V24.86l10.39 6 .75.44h.01l9.62 5.56z"></path></svg>